<svg xmlns="http://www.w3.org/2000/svg" width="600" height="410.937" viewBox="0 0 600 410.937"><path d="M42.188 224.219c69.53 57.812 210.156 44.531 346.093-39.844C468.75 134.375 532.812 67.187 571.094 0l-59.375 22.656s-67.97 125.782-217.97 197.656S21.876 260.156 0 236.72l42.188-12.5z" fill-rule="evenodd" clip-rule="evenodd" fill="#bddc04"/><path fill-rule="evenodd" clip-rule="evenodd" fill="#e42535" d="M20.312 120.312v84.375h84.376v-84.375H20.311"/><path d="M130.469 204.688h24.219v-84.376h-24.22v84.376zm89.843-32.813c0 10.156-5.468 14.844-14.062 14.844s-14.062-4.688-14.062-14.844v-51.563h-24.22v50.782c0 24.219 14.845 35.156 38.282 35.156 22.656 0 38.281-10.938 38.281-35.156v-50.782h-24.219v51.563zm32.032-51.563v19.532h23.437v64.844h24.22v-64.844h22.655v-19.532h-70.312z" fill="#005f72"/><path d="M37.5 373.438h21.875v-7.032H23.437v43.75H37.5v-18.75h17.969v-6.25h-17.97v-11.719zm48.438-7.813c-17.188 0-28.126 8.594-28.126 22.656 0 14.063 10.938 22.656 28.126 22.656s28.125-8.593 28.125-22.656c0-14.062-10.938-22.656-28.125-22.656zm7.812 35.937c-2.344 1.563-4.688 2.344-8.594 2.344-7.812 0-13.281-6.25-13.281-15.625 0-5.469 2.344-10.937 6.25-13.281 2.344-1.563 4.688-2.344 7.812-2.344 3.125 0 6.25.781 7.813 2.344 3.906 2.344 6.25 7.812 6.25 13.281s-2.344 10.938-6.25 13.281zm57.813-8.593l-22.657-25.782h-11.718v43.75h10.156v-25.781L150 410.937h11.719v-43.75h-10.156v25.782zm63.28-25.782h-51.562v7.032h18.75v35.937h14.063V374.22h18.75v-7.032zm15.626-.78l-20.313 43.75h9.375L225 399.218h20.312l5.47 10.937h14.062l-20.313-43.75H230.47zm-1.563 25.78l7.031-15.625 7.032 15.625h-14.063zm37.5 17.97h14.063v-43.75h-14.063v43.75zm54.688-17.188l-22.657-25.782H286.72v43.75h10.156v-25.781l22.656 25.781h11.719v-43.75h-10.156v25.782zm31.25-3.125h17.969v-6.25h-17.97v-10.156h21.876v-7.032H338.28v43.75h37.5v-7.031h-23.437v-13.281zm60.156.868c-3.125-1.62-4.688-2.431-10.156-3.241 5.468-1.62 7.812-2.43 10.156-4.051 2.344-1.62 3.906-4.86 3.906-7.292 0-2.43-1.562-5.67-3.906-7.291-2.344-1.62-5.469-2.43-11.719-2.43h-21.094v43.75h21.094c6.25 0 9.375-.811 12.5-2.431s4.688-4.862 4.688-8.102c0-3.241-1.563-6.482-5.47-8.912zm-21.094-17.014h1.563c5.468 0 5.468 0 7.03.81 1.563 0 2.345 1.62 2.345 3.24 0 4.052-3.125 6.482-7.813 6.482h-3.125v-10.532zM400 403.674h-7.812v-12.152h2.343c5.469 0 10.157 3.24 10.157 7.292 0 2.43-1.563 4.05-4.688 4.86zm35.937-37.268h-14.062v43.75h37.5v-7.031h-23.438v-36.719zm39.844 23.438h17.969v-6.25H475.78v-10.156h21.875v-7.032H461.72v43.75h37.5v-7.031H475.78v-13.281zm44.531-23.438L500 410.156h9.375l5.469-10.937h20.312l5.469 10.937h14.062l-20.312-43.75h-14.063zm-1.562 25.781l7.031-15.625 7.032 15.625H518.75zm68.75-25.78v27.343c0 7.031-3.125 10.156-9.375 10.156-3.125 0-5.469-.781-7.031-2.344-1.563-2.343-2.344-4.687-2.344-9.375v-25.78h-14.063v25.78c0 7.813 1.563 10.938 5.47 14.063 3.905 3.125 10.155 4.687 17.187 4.687 7.031 0 12.5-1.562 16.406-4.687 3.906-3.125 5.469-6.25 5.469-14.063H600v-25.78h-12.5zM57.812 313.28c0-3.906-2.343-7.812-7.03-10.156-2.345-1.563-4.688-2.344-7.813-3.906l-1.563-.782c-4.687-2.343-6.25-3.906-6.25-5.468 0-2.344 3.125-3.907 7.032-3.907 3.125 0 7.03.782 10.937 1.563.781 0 1.563.781 2.344.781v-8.594c-7.813-1.562-10.156-1.562-15.625-1.562-11.719 0-18.75 4.687-18.75 12.5 0 5.469 3.906 9.375 13.281 14.062l3.125 1.563c4.688 2.344 6.25 3.125 6.25 5.469 0 3.125-3.125 4.687-8.594 4.687-3.906 0-7.812-.781-11.718-1.562-.782 0-1.563 0-3.126-.782v8.594c8.594.781 10.938.781 16.407.781 13.281 0 21.093-4.687 21.093-13.28zM100 317.188H76.562v-11.72h17.97v-6.25h-17.97v-10.156h21.875v-7.03H62.5v43.75H100v-8.594zm50 9.374v-43.75h-10.156v25.782l-22.656-25.782h-11.72v43.75h10.157v-25.78l22.656 25.78H150zm18.75-11.718h19.531l5.469 10.937h14.062l-19.53-43.75h-14.063l-20.313 43.75h9.375l5.469-10.937zm10.156-22.657l7.031 15.625h-14.062l7.031-15.625zM225 308.594h4.687l10.938 17.187h17.187l-17.187-20.312c5.469-2.344 9.375-7.032 9.375-12.5 0-3.125-.781-6.25-3.906-7.813-2.344-2.344-5.469-3.125-11.72-3.125H211.72v43.75h13.28v-17.187zm0-18.75h2.344c7.03 0 9.375.78 9.375 4.687 0 4.688-3.125 7.031-9.375 7.031H225v-11.718zm50.781 35.937h14.063v-35.937h18.75v-7.032H257.03v7.032h18.75v35.937z"/></svg>